<?xml version="1.0" encoding="UTF-8" standalone="no"?>
<svg
   xmlns:dc="http://purl.org/dc/elements/1.1/"
   xmlns:cc="http://creativecommons.org/ns#"
   xmlns:rdf="http://www.w3.org/1999/02/22-rdf-syntax-ns#"
   xmlns:svg="http://www.w3.org/2000/svg"
   xmlns="http://www.w3.org/2000/svg"
   xmlns:sodipodi="http://sodipodi.sourceforge.net/DTD/sodipodi-0.dtd"
   xmlns:inkscape="http://www.inkscape.org/namespaces/inkscape"
   id="Outline"
   viewBox="0 0 512 512"
   width="512"
   height="512"
   version="1.1"
   sodipodi:docname="battleship.svg"
   inkscape:version="0.92.5 (2060ec1f9f, 2020-04-08)">
  <metadata
     id="metadata17">
    <rdf:RDF>
      <cc:Work
         rdf:about="">
        <dc:format>image/svg+xml</dc:format>
        <dc:type
           rdf:resource="http://purl.org/dc/dcmitype/StillImage" />
      </cc:Work>
    </rdf:RDF>
  </metadata>
  <defs
     id="defs15" />
  <sodipodi:namedview
     pagecolor="#ffffff"
     bordercolor="#666666"
     borderopacity="1"
     objecttolerance="10"
     gridtolerance="10"
     guidetolerance="10"
     inkscape:pageopacity="0"
     inkscape:pageshadow="2"
     inkscape:window-width="640"
     inkscape:window-height="480"
     id="namedview13"
     showgrid="false"
     inkscape:zoom="0.4609375"
     inkscape:cx="256"
     inkscape:cy="256"
     inkscape:window-x="0"
     inkscape:window-y="0"
     inkscape:window-maximized="0"
     inkscape:current-layer="Outline" />
  <path
     d="M496,320V304H480V184H464V304H448v16h16v16a16,16,0,0,0-13.835,8h-84.33A16,16,0,0,0,352,336H320c-.353,0-.7.03-1.045.053L303.982,111.468h-.007a7.964,7.964,0,0,0-.13-1.037L292.806,55.239a51.7,51.7,0,0,0-34.277-38.828,7.986,7.986,0,0,0-5.058,0,51.7,51.7,0,0,0-34.277,38.828h0l-11.039,55.193a7.964,7.964,0,0,0-.13,1.037l-14.98,224.585c-.347-.023-.692-.053-1.045-.053H160a16,16,0,0,0-13.835,8H61.835A16,16,0,0,0,48,336V320H64V304H48V184H32V304H16v16H32v16a16.019,16.019,0,0,0-16,16v72a8,8,0,0,0,8,8h8v16H48V432h8a8,8,0,0,0,8-8v-1.87l67.884,40.73a8,8,0,0,0,6.646.729L152,459.1V472a8,8,0,0,0,8,8h8v16h16V480h8a8,8,0,0,0,8-8V435.314l26.343,26.343A8,8,0,0,0,232,464h48a8,8,0,0,0,5.657-2.343L312,435.314V472a8,8,0,0,0,8,8h8v16h16V480h8a8,8,0,0,0,8-8V459.1l13.47,4.49a8,8,0,0,0,6.646-.729L448,422.13V424a8,8,0,0,0,8,8h8v16h16V432h8a8,8,0,0,0,8-8V352a16.019,16.019,0,0,0-16-16V320Zm-16,31.99V368H464V352ZM352,416H320V384h32Zm-72.155-1.569A8,8,0,0,0,272,408H240a8,8,0,0,0-7.845,6.431l-5.068,25.342L208,420.686V352.269L223.485,120H240a8,8,0,0,0,7.59-5.47L253.766,96h4.468l6.176,18.53A8,8,0,0,0,272,120h16.515L304,352.269v68.417l-19.087,19.087ZM270.241,448H241.759l4.8-24h18.882ZM160,416V384h32v32Zm192-64.01V368H320V352ZM234.884,58.376h0A35.675,35.675,0,0,1,256,32.542a35.675,35.675,0,0,1,21.116,25.834L286.241,104h-8.475L271.59,85.47A8,8,0,0,0,264,80H248a8,8,0,0,0-7.59,5.47L234.234,104h-8.475ZM192,352v16H160V352ZM48,352v16H32V352ZM32,416V384H48v32Zm104.961,31.247L64,403.47V360h40v20.687L90.343,394.343l11.314,11.314,16-16A8,8,0,0,0,120,384V360h24v64a8,8,0,0,0,8,8v10.234ZM168,464V432h16v32Zm160,0V432h16v32Zm47.039-16.753L360,442.234V432a8,8,0,0,0,8-8V360h24v24a8,8,0,0,0,2.343,5.657l16,16,11.314-11.314L408,380.687V360h40v43.47ZM464,416V384h16v32Z"
     id="path2"
     style="fill:#ffffff" />
  <path
     d="M256,216a24.028,24.028,0,0,0-24,24v80a8,8,0,0,0,8,8h32a8,8,0,0,0,8-8V240A24.028,24.028,0,0,0,256,216Zm-8,24a8,8,0,0,1,16,0v40H248Zm0,72V296h16v16Z"
     id="path4"
     style="fill:#ffffff" />
  <path
     d="M256,344a24,24,0,1,0,24,24A24.027,24.027,0,0,0,256,344Zm0,32a8,8,0,1,1,8-8A8.009,8.009,0,0,1,256,376Z"
     id="path6"
     style="fill:#ffffff" />
  <rect
     x="248"
     y="136"
     width="16"
     height="64"
     id="rect8"
     style="fill:#ffffff" />
  <rect
     x="248"
     y="48"
     width="16"
     height="16"
     id="rect10"
     style="fill:#ffffff" />
</svg>
