<?xml version="1.0" encoding="UTF-8" standalone="no"?>
<svg
   xmlns:dc="http://purl.org/dc/elements/1.1/"
   xmlns:cc="http://creativecommons.org/ns#"
   xmlns:rdf="http://www.w3.org/1999/02/22-rdf-syntax-ns#"
   xmlns:svg="http://www.w3.org/2000/svg"
   xmlns="http://www.w3.org/2000/svg"
   xmlns:sodipodi="http://sodipodi.sourceforge.net/DTD/sodipodi-0.dtd"
   xmlns:inkscape="http://www.inkscape.org/namespaces/inkscape"
   id="Layer_1"
   height="512"
   viewBox="0 0 128 128"
   width="512"
   data-name="Layer 1"
   version="1.1"
   sodipodi:docname="telescope.svg"
   inkscape:version="0.92.5 (2060ec1f9f, 2020-04-08)">
  <metadata
     id="metadata13">
    <rdf:RDF>
      <cc:Work
         rdf:about="">
        <dc:format>image/svg+xml</dc:format>
        <dc:type
           rdf:resource="http://purl.org/dc/dcmitype/StillImage" />
      </cc:Work>
    </rdf:RDF>
  </metadata>
  <defs
     id="defs11" />
  <sodipodi:namedview
     pagecolor="#ffffff"
     bordercolor="#666666"
     borderopacity="1"
     objecttolerance="10"
     gridtolerance="10"
     guidetolerance="10"
     inkscape:pageopacity="0"
     inkscape:pageshadow="2"
     inkscape:window-width="640"
     inkscape:window-height="480"
     id="namedview9"
     showgrid="false"
     inkscape:zoom="0.4609375"
     inkscape:cx="256"
     inkscape:cy="256"
     inkscape:window-x="0"
     inkscape:window-y="0"
     inkscape:window-maximized="0"
     inkscape:current-layer="Layer_1" />
  <path
     d="m121.077 19.475a16.618 16.618 0 0 0 -11.4-8.11l-1.277-5.277a1.75 1.75 0 0 0 -2.119-1.288l-9.8 2.373a1.751 1.751 0 0 0 -1.289 2.113l.934 3.857-65.026 15.746a1.751 1.751 0 0 0 -1.285 2.111l.627 2.589-11.808 2.86a1.751 1.751 0 0 0 -1.289 2.113l.925 3.82-12.176 2.947a1.75 1.75 0 0 0 -1.289 2.113l2.25 9.29a1.751 1.751 0 0 0 1.7 1.339 1.786 1.786 0 0 0 .413-.05l12.175-2.947.922 3.808a1.751 1.751 0 0 0 1.7 1.339 1.734 1.734 0 0 0 .413-.05l11.809-2.858.628 2.59a1.752 1.752 0 0 0 1.7 1.338 1.734 1.734 0 0 0 .413-.05l17.49-4.238a7.723 7.723 0 0 0 1.2 2.8l-27.861 56.653a4.752 4.752 0 0 0 4.259 6.844 4.779 4.779 0 0 0 4.261-2.658l20.979-42.667v40.575a4.75 4.75 0 0 0 9.5 0v-40.575l20.979 42.667a4.779 4.779 0 0 0 4.265 2.658 4.636 4.636 0 0 0 2.089-.488 4.743 4.743 0 0 0 2.171-6.354l-27.86-56.659a7.671 7.671 0 0 0 1.07-6.44l32.481-7.876.936 3.862a1.751 1.751 0 0 0 2.113 1.289l9.8-2.374a1.749 1.749 0 0 0 1.289-2.113l-1.277-5.274a16.645 16.645 0 0 0 4.265-21.348zm-111.032 34.732-1.426-5.888 10.474-2.535 1.426 5.888zm15.21 2.151-.912-3.767c0-.014 0-.028-.006-.042s-.01-.027-.014-.041l-2.231-9.208c0-.013 0-.025 0-.037s-.009-.023-.012-.036l-.917-3.784 10.108-2.446 4.1 16.918zm42.305-3.3a4.225 4.225 0 0 1 -.544 5.308l-.009.011a4.244 4.244 0 0 1 -6.006 0l-.009-.011a4.246 4.246 0 1 1 6.566-5.312zm-32.425 65.991a1.248 1.248 0 0 1 -2.3-.147 1.231 1.231 0 0 1 .062-.95l26.359-53.612v5.654zm28.871.7a1.251 1.251 0 0 1 -1.25-1.25v-55.484a7.157 7.157 0 0 0 2.5 0v55.485a1.251 1.251 0 0 1 -1.25 1.25zm31.171-.848a1.247 1.247 0 0 1 -.644.723 1.274 1.274 0 0 1 -1.657-.577l-24.12-49.053v-5.654l26.36 53.615a1.227 1.227 0 0 1 .061.945zm-31.171-71.276a7.756 7.756 0 0 0 -7.465 5.7l-16.741 4.053-5.546-22.9v-.008-.009l-.625-2.581 63.323-15.336 6.173 25.487-33.425 8.105a7.723 7.723 0 0 0 -5.694-2.511zm43.869-.855-7.92-32.7c0-.018 0-.036-.008-.054s-.013-.033-.017-.05l-.922-3.8 6.4-1.55 8.868 36.608zm2.73-31.556a13.094 13.094 0 0 1 5.277 21.786z"
     id="path2"
     style="fill:#ffffff" />
  <path
     d="m77.035 23.942-13.441 3.258a1.75 1.75 0 1 0 .824 3.4l13.442-3.257a1.75 1.75 0 1 0 -.825-3.4z"
     id="path4"
     style="fill:#ffffff" />
  <path
     d="m90.05 22.59a1.746 1.746 0 0 0 -2.113-1.29l-4 .968a1.75 1.75 0 1 0 .824 3.4l3.995-.968a1.749 1.749 0 0 0 1.294-2.11z"
     id="path6"
     style="fill:#ffffff" />
</svg>
