<?xml version="1.0"?>
<svg xmlns="http://www.w3.org/2000/svg" xmlns:xlink="http://www.w3.org/1999/xlink" xmlns:svgjs="http://svgjs.com/svgjs" version="1.1" width="512" height="512" x="0" y="0" viewBox="0 200 900 500" style="enable-background:new 0 0 512 512" xml:space="preserve" class=""><g><g xmlns="http://www.w3.org/2000/svg" id="_36-Fuel_gauge" data-name="36-Fuel gauge"><path d="m731.8 473.5a15.58 15.58 0 0 0 8-2.2l100.6-58.2a16.46 16.46 0 0 0 7.5-9.8 16 16 0 0 0 -1.6-12.1 460.06 460.06 0 0 0 -796.8.1 16 16 0 0 0 5.9 21.9l96.2 55.7a15.58 15.58 0 0 0 8 2.2 16 16 0 0 0 8.1-29.9l-82.2-47.6a427.49 427.49 0 0 1 134.6-134.4l27.9 48.5a16.07 16.07 0 0 0 13.9 8 16.49 16.49 0 0 0 8-2.1 16 16 0 0 0 5.9-21.9l-28-48.6a428.49 428.49 0 0 1 183.9-49.6v88.7a16 16 0 0 0 32 0v-88.7a426.93 426.93 0 0 1 184 49.4l-28.1 48.7a16 16 0 0 0 5.9 21.9 16.49 16.49 0 0 0 8 2.1 16.19 16.19 0 0 0 13.9-8l28-48.7a427.4 427.4 0 0 1 134.8 134.5l-86.5 50a16 16 0 0 0 -5.8 21.9 15.76 15.76 0 0 0 13.9 8.2z" fill="#ffffff" data-original="#000000" style="" class=""/><path d="m535.3 621.9-72.5-284a16 16 0 0 0 -15.5-12 16 16 0 0 0 -15.5 12.1l-71.7 285.3c0 .2-.1.4-.1.6a92.78 92.78 0 0 0 -3.1 23.7 91.1 91.1 0 1 0 182.2 0 94.48 94.48 0 0 0 -3.8-25.7zm-87.9-214.9 40.5 158.7a91.17 91.17 0 0 0 -40-9.3 90 90 0 0 0 -40.4 9.5zm.5 299.6a59.1 59.1 0 1 1 59.1-59.1 59.15 59.15 0 0 1 -59.1 59.1z" fill="#ffffff" data-original="#000000" style="" class=""/><path d="m163.6 578.1a16 16 0 1 0 0-32h-100.2a16 16 0 0 0 -16 16v160.5a16 16 0 0 0 16 16h100.2a16 16 0 1 0 0-32h-84.2v-48h84.2a16 16 0 1 0 0-32h-84.2v-48.4h84.2z" fill="#ffffff" data-original="#000000" style="" class=""/><path d="m837.2 546.1h-100.6a16 16 0 0 0 -16 16v160.5a16 16 0 0 0 32 0v-64h64.4a16 16 0 0 0 0-32h-64.4v-48.4h84.6a16.05 16.05 0 0 0 0-32.1z" fill="#ffffff" data-original="#000000" style="" class=""/></g></g></svg>