<svg xmlns="http://www.w3.org/2000/svg" viewBox="0 0 677.85 127.17"><defs><style>.a{fill:#fff;}.b{fill:none;stroke:#fff;stroke-miterlimit:10;stroke-width:3px;}</style></defs><path class="a" d="M122.21,214.06c-9.74,0-11.53-4.76-11.53-8.07v-3.86l3.13-.22v3.24c0,3,1.4,6,8.68,6,7.51,0,9-4.25,9-8.51,0-4.48-2.52-6.27-6.5-7.73l-6.21-2.24c-5.38-2-7.67-4.87-7.67-9.63,0-5.82,3.52-10.08,12-10.08,8.62,0,10.92,4.48,10.92,7.5v4.71l-3.08.17v-3.92c0-2.8-1.57-5.83-7.84-5.83-6.66,0-8.79,3.14-8.79,7s2.13,6.05,6.1,7.39l6.33,2.24c4.09,1.4,8,3.48,8,10.36C134.76,209.07,131.17,214.06,122.21,214.06Z" transform="translate(-82.02 -125.49)"/><path class="a" d="M184.75,213.22v-36.4H172.37v-3h27.89v3H187.94v36.4Z" transform="translate(-82.02 -125.49)"/><path class="a" d="M241.23,213.22V173.85h21.45v3H244.42v14.67h17.2v3h-17.2v15.79H263.8v3Z" transform="translate(-82.02 -125.49)"/><path class="a" d="M306.4,213.22V173.85h3.19v36.4h16.63v3Z" transform="translate(-82.02 -125.49)"/><path class="a" d="M369.1,213.22V173.85h3.19v36.4h16.63v3Z" transform="translate(-82.02 -125.49)"/><path class="a" d="M427.38,213.22V212l13.1-38.19h4.31l13.11,38.08v1.29H455l-4.08-12.1H434.32l-4,12.1Zm7.95-15.07h14.56l-7.17-21.33h-.22Z" transform="translate(-82.02 -125.49)"/><path class="a" d="M520.32,213.22l-8.9-17h-9v17h-3.19V173.85h13c5.83,0,10.65,3.53,10.65,9.13v3.69c0,5.32-3.81,8.4-8.07,9.3L523.46,212v1.18ZM502.4,193.34h8.18c4.47,0,9.12-1.4,9.12-6.89v-3c0-4.09-2.74-6.61-8.62-6.61H502.4Z" transform="translate(-82.02 -125.49)"/><path class="a" d="M564.09,213.44v-3h6.27V176.82h-6.27v-3h15.68v3h-6.21v33.65h6.21v3Z" transform="translate(-82.02 -125.49)"/><path class="a" d="M635.25,214.06c-10,0-13.27-5.15-13.27-13.61v-26.6h3.19v26c0,7.78,2.86,11.2,10.7,11.2,7.28,0,10-4,10-11.14v-26.1H649v26.43C649,207.84,646.17,214.06,635.25,214.06Z" transform="translate(-82.02 -125.49)"/><path class="a" d="M693.69,213.22V173.85h4l12.88,26.49h.28l13.5-26.49h3.86v39.37h-3.14V179.39h-.16l-13.28,25.37h-2l-12.66-25.37h-.17v33.83Z" transform="translate(-82.02 -125.49)"/><polyline class="b" points="27.48 1.5 1.5 1.5 1.5 125.67 27.48 125.67"/><polyline class="b" points="650.36 125.67 676.35 125.67 676.35 1.5 650.36 1.5"/></svg>