<?xml version="1.0"?>
<svg xmlns="http://www.w3.org/2000/svg" xmlns:xlink="http://www.w3.org/1999/xlink" xmlns:svgjs="http://svgjs.com/svgjs" version="1.1" width="512" height="512" x="0" y="0" viewBox="0 0 512.001 512.001" style="enable-background:new 0 0 512 512" xml:space="preserve" class=""><g><path xmlns="http://www.w3.org/2000/svg" d="m491.934 395.872-26.946-258.067c-.405-3.875-2.259-7.454-5.192-10.019l-141.707-123.966c-4.59-4.016-11.114-4.953-16.648-2.394l-183.326 84.77c-2.574 1.19-4.77 3.066-6.349 5.422l-89.171 133.113c-2.061 3.077-2.948 6.794-2.498 10.471l32.212 263.233c.948 7.745 7.525 13.566 15.328 13.566h309.877c4.096 0 8.024-1.628 10.921-4.524l99.061-99.083c3.291-3.292 4.922-7.893 4.438-12.522zm-186.633-362.204 111.613 97.637-101.676 24.145-150.683-56.7zm53.473 447.448h-260.037l206.919-272.721zm-307.323-243.967 79.163-118.172 158.785 59.75-211.057 278.174zm335.67 227.959-54.914-281.944 103.89-24.671 24.356 233.267z" fill="#767676" data-original="#000000" style="" class=""/></g></svg>
