<?xml version="1.0" encoding="UTF-8" standalone="no"?>
<svg
   xmlns:dc="http://purl.org/dc/elements/1.1/"
   xmlns:cc="http://creativecommons.org/ns#"
   xmlns:rdf="http://www.w3.org/1999/02/22-rdf-syntax-ns#"
   xmlns:svg="http://www.w3.org/2000/svg"
   xmlns="http://www.w3.org/2000/svg"
   xmlns:sodipodi="http://sodipodi.sourceforge.net/DTD/sodipodi-0.dtd"
   xmlns:inkscape="http://www.inkscape.org/namespaces/inkscape"
   id="Layer_5"
   enable-background="new 0 0 64 64"
   height="512"
   viewBox="0 0 64 64"
   width="512"
   version="1.1"
   sodipodi:docname="industrial-robot.svg"
   inkscape:version="0.92.5 (2060ec1f9f, 2020-04-08)">
  <metadata
     id="metadata15">
    <rdf:RDF>
      <cc:Work
         rdf:about="">
        <dc:format>image/svg+xml</dc:format>
        <dc:type
           rdf:resource="http://purl.org/dc/dcmitype/StillImage" />
      </cc:Work>
    </rdf:RDF>
  </metadata>
  <defs
     id="defs13" />
  <sodipodi:namedview
     pagecolor="#ffffff"
     bordercolor="#666666"
     borderopacity="1"
     objecttolerance="10"
     gridtolerance="10"
     guidetolerance="10"
     inkscape:pageopacity="0"
     inkscape:pageshadow="2"
     inkscape:window-width="640"
     inkscape:window-height="480"
     id="namedview11"
     showgrid="false"
     inkscape:zoom="0.4609375"
     inkscape:cx="256"
     inkscape:cy="256"
     inkscape:window-x="0"
     inkscape:window-y="0"
     inkscape:window-maximized="0"
     inkscape:current-layer="Layer_5" />
  <g
     id="g8"
     style="fill:#ffffff">
    <path
       d="m13 15c0-2.206-1.794-4-4-4s-4 1.794-4 4 1.794 4 4 4 4-1.794 4-4zm-6 0c0-1.103.897-2 2-2s2 .897 2 2-.897 2-2 2-2-.897-2-2z"
       id="path2"
       style="fill:#ffffff" />
    <path
       d="m55 15c0-1.654-1.346-3-3-3s-3 1.346-3 3 1.346 3 3 3 3-1.346 3-3zm-4 0c0-.551.449-1 1-1s1 .449 1 1-.449 1-1 1-1-.449-1-1z"
       id="path4"
       style="fill:#ffffff" />
    <path
       d="m59.649 31.502c.812-.537 1.351-1.457 1.351-2.502 0-1.654-1.346-3-3-3h-3v-4.685c2.361-1.126 4-3.53 4-6.315 0-3.86-3.14-7-7-7-1.902 0-3.627.765-4.89 2h-8.11v2h-4v-3h-7.065c-.556-4.493-4.797-8-9.935-8-4.279 0-8.05 2.442-9.44 6.022-4.206.231-7.56 3.715-7.56 7.978 0 3.213 1.877 6.008 4.708 7.276-2.974 2.452-4.708 5.985-4.708 9.724 0 6.714 5.51 12.254 12.551 12.93-.35.96-.551 1.991-.551 3.07 0 1.181.245 2.344.698 3.433-3.453.861-6.505 2.975-8.53 6.013l-.168.251v5.303h34v-5.303l-.168-.252c-2.025-3.038-5.077-5.151-8.53-6.013.453-1.088.698-2.251.698-3.432 0-4.178-2.866-7.69-6.731-8.699l-7.434-18.301h18.165v-3h4v2h8.11c.549.537 1.188.98 1.89 1.315v4.685h-3c-1.654 0-3 1.346-3 3 0 1.045.539 1.965 1.351 2.502-2.025 1.453-3.351 3.821-3.351 6.498v2c0 4.411 3.589 8 8 8h1v-6h-1c-1.103 0-2-.897-2-2v-2c0-1.103.897-2 2-2v1c0 1.654 1.346 3 3 3s3-1.346 3-3v-1c1.103 0 2 .897 2 2v2c0 1.103-.897 2-2 2h-1v6h1c4.411 0 8-3.589 8-8v-2c0-2.677-1.326-5.045-3.351-6.498zm-41.649-28.502c4.022 0 7.351 2.613 7.909 6h-2.03c-.558-2.279-2.981-4-5.879-4-2.367 0-4.434 1.155-5.405 2.863-.601-.304-1.243-.539-1.919-.683 1.259-2.509 4.106-4.18 7.324-4.18zm-3.726 6c-.009-.008-.018-.016-.027-.024.571-1.157 2.07-1.976 3.753-1.976 1.736 0 3.202.839 3.754 2zm-11.274 6c0-3.309 2.691-6 6-6s6 2.691 6 6c0 1.161-.336 2.291-.972 3.266l-.285.438 8.245 20.297c-2.143.003-4.111.76-5.657 2.017l-8.146-20.055-.51-.115c-2.753-.621-4.675-3.026-4.675-5.848zm10.287 23.836c-3.582-.693-6.287-3.514-6.287-6.836 0-1.591.628-3.116 1.744-4.346zm-10.287-6.836c0-3.198 1.532-6.218 4.139-8.297l.791 1.946c-1.866 1.681-2.93 3.953-2.93 6.351 0 4.673 4.047 8.564 9.149 8.958l.667 1.643c-.095.125-.194.247-.282.378-6.399-.227-11.534-5.057-11.534-10.979zm16 16c0-1.654 1.346-3 3-3s3 1.346 3 3-1.346 3-3 3-3-1.346-3-3zm7.789 5c3.51 0 6.802 1.471 9.142 4h-27.862c2.34-2.529 5.632-4 9.142-4zm-19.789 8v-2h30v2zm22-13c0 1.073-.265 2.126-.744 3.091-.485-.049-.973-.091-1.467-.091h-.815c.635-.838 1.026-1.87 1.026-3 0-2.757-2.243-5-5-5s-5 2.243-5 5c0 1.13.391 2.162 1.026 3h-.815c-.494 0-.982.042-1.467.091-.479-.965-.744-2.018-.744-3.091 0-3.859 3.14-7 7-7s7 3.141 7 7zm-13.019-29.1c.668-1.192 1.019-2.529 1.019-3.9 0-1.458-.398-2.822-1.082-4h13.082v8h-12.978zm17.019.1h-2v-8h2zm2-3v-2h4v2zm6-4h4.685c-.435.911-.685 1.925-.685 3s.25 2.089.685 3h-4.685zm6 3c0-2.757 2.243-5 5-5s5 2.243 5 5-2.243 5-5 5-5-2.243-5-5zm4 6.92c.328.047.66.08 1 .08s.672-.033 1-.08v4.08h-2zm-5 8.08c-.551 0-1-.449-1-1s.449-1 1-1h12c.551 0 1 .449 1 1s-.449 1-1 1h-3-6zm-1 8v2c0 1.86 1.277 3.429 3 3.873v2.044c-2.834-.478-5-2.949-5-5.917v-2c0-3.309 2.691-6 6-6v2c-2.206 0-4 1.794-4 4zm7 0c-.551 0-1-.448-1-1v-5h2v5c0 .552-.449 1-1 1zm9 2c0 2.968-2.166 5.439-5 5.917v-2.044c1.723-.444 3-2.013 3-3.873v-2c0-2.206-1.794-4-4-4v-2c3.309 0 6 2.691 6 6z"
       id="path6"
       style="fill:#ffffff" />
  </g>
</svg>
