<?xml version="1.0"?>
<svg xmlns="http://www.w3.org/2000/svg" xmlns:xlink="http://www.w3.org/1999/xlink" xmlns:svgjs="http://svgjs.com/svgjs" version="1.1" width="512" height="512" x="0" y="0" viewBox="0 0 128 128" style="enable-background:new 0 0 512 512" xml:space="preserve" class=""><g><g xmlns="http://www.w3.org/2000/svg"><path d="m123.105 116.034-4.546-10.484a6 6 0 0 0 1.769-6.643l-11.45-31.624a4.26 4.26 0 0 1 -.022-2.832l1.806-5.232a7.775 7.775 0 0 0 -3.4-9.21l-36.257-21.3a7.747 7.747 0 0 0 -8.287.287l-13.947-14.579a10.774 10.774 0 0 0 -5.513-3.068l-30.5-6.56a1.748 1.748 0 0 0 -2.079 1.344l-1.89 8.8a1.75 1.75 0 0 0 1.344 2.078l29.591 6.358a1.3 1.3 0 0 1 .652.36l13.4 14-.218.218a7.789 7.789 0 0 0 -1.84 8.034l22.382 64.219a6.048 6.048 0 0 0 8.535 3.362l14.217-7.49 1.1 2.527a6.042 6.042 0 0 0 6.575 3.551l4.359 10.045a1.75 1.75 0 0 0 1.606 1.054 1.73 1.73 0 0 0 .7-.145l11.009-4.769a1.747 1.747 0 0 0 .91-2.3zm-80.2-94.721a4.754 4.754 0 0 0 -2.44-1.364l-27.887-5.993 1.155-5.377 28.787 6.191a7.284 7.284 0 0 1 3.725 2.07l13.9 14.524-3.892 3.889zm59.7 87.264a2.531 2.531 0 0 1 -1.44-1.371l-1.847-4.257a1.748 1.748 0 0 0 -2.42-.851l-15.888 8.37a2.553 2.553 0 0 1 -3.6-1.419l-22.388-64.223a4.269 4.269 0 0 1 1.009-4.4l8.045-8.04a4.251 4.251 0 0 1 5.156-.658l36.257 21.3a4.264 4.264 0 0 1 1.865 5.051l-1.806 5.232a7.763 7.763 0 0 0 .039 5.167l11.45 31.623a2.541 2.541 0 0 1 -1.315 3.18c-.015.006-.031.008-.046.015s-.05.029-.076.042l-10.769 5.049c-.008 0-.017.005-.025.009s-.028.016-.043.023l-.174.082a2.527 2.527 0 0 1 -1.989.076zm8.8 10.622-3.615-8.332 7.7-3.611 3.714 8.564z" fill="#ffffff" data-original="#000000" style="" class=""/><path d="m74.189 41.6 5.3 3.113a1.75 1.75 0 0 0 1.774-3.018l-5.3-3.113a1.75 1.75 0 0 0 -1.774 3.018z" fill="#ffffff" data-original="#000000" style="" class=""/><path d="m86.54 69.372a8.113 8.113 0 0 0 -3.746-4.41l-3.841-2.111a8.125 8.125 0 0 0 -11.586 9.794l11.75 33.716a1.75 1.75 0 0 0 2.467.973l14.16-7.449a1.75 1.75 0 0 0 .835-2.133zm-4.787 33.918-11.081-31.8a4.627 4.627 0 0 1 4.367-6.147h.024l8.378 21.879-1.361 4.362a1.748 1.748 0 0 0 1.149 2.191 1.72 1.72 0 0 0 .522.08 1.748 1.748 0 0 0 1.669-1.228l1.543-4.939a1.746 1.746 0 0 0 -.036-1.148l-7.427-19.397 1.61.885a4.628 4.628 0 0 1 2.133 2.512l9.534 26.952z" fill="#ffffff" data-original="#000000" style="" class=""/><path d="m17.245 37.836c-.51.524-12.495 12.964-12.495 22.764a13.75 13.75 0 1 0 27.5 0c0-9.8-11.985-22.236-12.495-22.76a1.8 1.8 0 0 0 -2.51-.004zm1.255 33.01a10.261 10.261 0 0 1 -10.25-10.246c0-6.693 7.268-15.583 10.251-18.95 2.983 3.36 10.249 12.243 10.249 18.95a10.261 10.261 0 0 1 -10.25 10.246z" fill="#ffffff" data-original="#000000" style="" class=""/></g></g></svg>