<?xml version="1.0" encoding="UTF-8" standalone="no"?>
<svg
   xmlns:dc="http://purl.org/dc/elements/1.1/"
   xmlns:cc="http://creativecommons.org/ns#"
   xmlns:rdf="http://www.w3.org/1999/02/22-rdf-syntax-ns#"
   xmlns:svg="http://www.w3.org/2000/svg"
   xmlns="http://www.w3.org/2000/svg"
   xmlns:sodipodi="http://sodipodi.sourceforge.net/DTD/sodipodi-0.dtd"
   xmlns:inkscape="http://www.inkscape.org/namespaces/inkscape"
   height="512"
   viewBox="0 0 64 64"
   width="512"
   version="1.1"
   id="svg28"
   sodipodi:docname="material.svg"
   inkscape:version="0.92.5 (2060ec1f9f, 2020-04-08)">
  <metadata
     id="metadata34">
    <rdf:RDF>
      <cc:Work
         rdf:about="">
        <dc:format>image/svg+xml</dc:format>
        <dc:type
           rdf:resource="http://purl.org/dc/dcmitype/StillImage" />
      </cc:Work>
    </rdf:RDF>
  </metadata>
  <defs
     id="defs32" />
  <sodipodi:namedview
     pagecolor="#ffffff"
     bordercolor="#666666"
     borderopacity="1"
     objecttolerance="10"
     gridtolerance="10"
     guidetolerance="10"
     inkscape:pageopacity="0"
     inkscape:pageshadow="2"
     inkscape:window-width="772"
     inkscape:window-height="480"
     id="namedview30"
     showgrid="false"
     inkscape:zoom="0.4609375"
     inkscape:cx="256"
     inkscape:cy="256"
     inkscape:window-x="0"
     inkscape:window-y="0"
     inkscape:window-maximized="0"
     inkscape:current-layer="svg28" />
  <g
     id="Layer_32"
     data-name="Layer 32"
     style="fill:#ffffff">
    <path
       d="m62.447 29.105-5.211-2.605 5.211-2.6a1 1 0 0 0 0-1.79l-30-15a1 1 0 0 0 -.894 0l-30 15a1 1 0 0 0 0 1.79l5.211 2.6-5.211 2.605a1 1 0 0 0 -.553.895v4a1 1 0 0 0 .553.9l5.211 2.6-5.211 2.6a1 1 0 0 0 0 1.79l30 15a1 1 0 0 0 .894 0l30-15a1 1 0 0 0 0-1.79l-5.211-2.6 5.211-2.6a1 1 0 0 0 .553-.9v-4a1 1 0 0 0 -.553-.895zm-30.447-19.987 27.764 13.882-27.764 13.882-27.764-13.882zm-.447 29.782a1 1 0 0 0 .894 0l22.553-11.282 4.764 2.382-27.764 13.882-27.764-13.882 4.764-2.382zm-28.553-7.282 28 14v1.764l-28-14zm56.764 9.382-27.764 13.882-27.764-13.882 4.764-2.382 22.553 11.282a1 1 0 0 0 .894 0l22.553-11.282zm-26.764 6.382v-1.764l28-14v1.764z"
       id="path2"
       style="fill:#ffffff" />
  </g>
  <g
     id="Layer_1"
     data-name="Layer 1"
     style="fill:#ffffff">
    <text
       font-family="MyriadPro-Regular, Myriad Pro"
       font-size="10"
       transform="translate(5.92 -22.9)"
       id="text25"
       style="fill:#ffffff">
      <tspan
         letter-spacing="-.00698242188em"
         id="tspan5"
         style="fill:#ffffff">HY</tspan>
      <tspan
         x="11.79"
         y="0"
         id="tspan7"
         style="fill:#ffffff">D</tspan>
      <tspan
         letter-spacing=".00297851563em"
         x="18.45"
         y="0"
         id="tspan9"
         style="fill:#ffffff">R</tspan>
      <tspan
         x="23.859"
         y="0"
         id="tspan11"
         style="fill:#ffffff">O</tspan>
      <tspan
         letter-spacing="-.083984375em"
         x="30.75"
         y="0"
         id="tspan13"
         style="fill:#ffffff">L</tspan>
      <tspan
         letter-spacing="-.01298828125em"
         x="34.629"
         y="0"
         id="tspan15"
         style="fill:#ffffff">Y</tspan>
      <tspan
         x="39.909"
         y="0"
         id="tspan17"
         style="fill:#ffffff">SIS</tspan>
      <tspan
         x=".985"
         y="12"
         id="tspan19"
         style="fill:#ffffff">RESIS</tspan>
      <tspan
         letter-spacing="-.075em"
         x="23.535"
         y="12"
         id="tspan21"
         style="fill:#ffffff">T</tspan>
      <tspan
         x="27.755"
         y="12"
         id="tspan23"
         style="fill:#ffffff">ANCE</tspan>
    </text>
  </g>
</svg>
