<?xml version="1.0" encoding="UTF-8" standalone="no"?>
<!-- Generator: Adobe Illustrator 19.0.0, SVG Export Plug-In . SVG Version: 6.00 Build 0)  -->

<svg
   xmlns:dc="http://purl.org/dc/elements/1.1/"
   xmlns:cc="http://creativecommons.org/ns#"
   xmlns:rdf="http://www.w3.org/1999/02/22-rdf-syntax-ns#"
   xmlns:svg="http://www.w3.org/2000/svg"
   xmlns="http://www.w3.org/2000/svg"
   xmlns:sodipodi="http://sodipodi.sourceforge.net/DTD/sodipodi-0.dtd"
   xmlns:inkscape="http://www.inkscape.org/namespaces/inkscape"
   version="1.1"
   id="Capa_1"
   x="0px"
   y="0px"
   viewBox="0 0 512.002 512.002"
   style="enable-background:new 0 0 512.002 512.002;"
   xml:space="preserve"
   sodipodi:docname="winner.svg"
   inkscape:version="0.92.5 (2060ec1f9f, 2020-04-08)"><metadata
   id="metadata43"><rdf:RDF><cc:Work
       rdf:about=""><dc:format>image/svg+xml</dc:format><dc:type
         rdf:resource="http://purl.org/dc/dcmitype/StillImage" /></cc:Work></rdf:RDF></metadata><defs
   id="defs41" /><sodipodi:namedview
   pagecolor="#ffffff"
   bordercolor="#666666"
   borderopacity="1"
   objecttolerance="10"
   gridtolerance="10"
   guidetolerance="10"
   inkscape:pageopacity="0"
   inkscape:pageshadow="2"
   inkscape:window-width="640"
   inkscape:window-height="480"
   id="namedview39"
   showgrid="false"
   inkscape:zoom="0.46093569"
   inkscape:cx="256.00101"
   inkscape:cy="256.00101"
   inkscape:window-x="0"
   inkscape:window-y="0"
   inkscape:window-maximized="0"
   inkscape:current-layer="Capa_1" />
<g
   id="g6"
   style="fill:#ffffff">
	<g
   id="g4"
   style="fill:#ffffff">
		<path
   d="M500.159,229.199c-3.667-2.228-8.274-1.798-11.464,1.075c-7.669,6.908-15.45,13.287-23.472,19.277    c1.669-5.571,3.124-11.052,4.372-16.425c14.212-8.177,25.591-21.501,33.036-38.759c6.87-15.927,10.143-34.776,9.217-53.076    c-0.217-4.299-3.176-7.863-7.363-8.868c-4.198-1.009-8.464,0.828-10.616,4.571c-5.203,9.052-10.7,17.618-16.57,25.872    c-0.072-6.961-0.395-13.721-0.963-20.242c-0.002-0.151,0-0.301-0.011-0.453c-1.619-21.534-5.588-43.117-11.797-64.148    c-1.176-3.983-5.36-6.259-9.34-5.082c-3.983,1.176-6.258,5.358-5.082,9.341c3.816,12.926,6.729,26.069,8.738,39.272    c-7.445-7.136-15.113-13.829-23.164-20.189c-3.272-2.587-7.813-2.778-11.297-0.475c-3.48,2.3-5.084,6.546-3.99,10.565    c8.473,31.145,22.628,57.722,41.011,77.152c-0.424,5.459-1.043,11.064-1.875,16.805c-4.961-8.686-10.248-17.013-15.98-25.121    c-2.382-3.37-6.644-4.847-10.605-3.68c-3.954,1.166-6.726,4.711-6.899,8.823c-0.927,21.967,1.25,54.007,16.463,83.761    c-1.966,4.965-4.149,10.011-6.56,15.122c-2.236-9.697-4.889-19.136-8.032-28.485c-1.31-3.895-4.955-6.533-9.069-6.566    c-0.026,0-0.051,0-0.077,0c-4.074,0-7.715,2.566-9.075,6.407c-10.121,28.576-13.075,58.411-8.457,84.481    c-3.348,4.214-6.928,8.437-10.746,12.651c0.719-9.953,0.952-19.784,0.677-29.675c-0.114-4.112-2.831-7.702-6.761-8.935    c-3.92-1.228-8.192,0.164-10.627,3.466c-17.986,24.386-29.718,52.086-33.316,78.439l-2.026-5.488    c-1.592-4.312-5.75-7.209-10.346-7.209h-25.362c-3.443-5.568-6.601-11.551-9.406-17.85c-1.689-3.794-6.133-5.499-9.927-3.81    c-3.794,1.69-5.5,6.134-3.81,9.927c1.795,4.03,3.726,7.947,5.774,11.733h-58.72c11.809-21.87,17.838-45.073,20.904-63.537    c2.799,0.491,5.629,0.745,8.46,0.745c2.835,0,5.669-0.255,8.473-0.747c0.938,5.669,2.046,11.259,3.345,16.682    c0.826,3.45,3.907,5.769,7.306,5.769c0.58,0,1.169-0.068,1.758-0.209c4.039-0.967,6.528-5.025,5.56-9.064    c-1.405-5.868-2.588-11.941-3.542-18.113c2.199-1.158,4.338-2.486,6.391-3.999c7.743-5.705,14.743-12.226,20.936-19.385    c19.009-1.56,37.251-9.019,52.115-21.668c20.741-17.65,32.636-43.388,32.636-70.614v-25.425c0-2.939-1.146-5.701-3.227-7.777    c-2.074-2.069-4.827-3.206-7.753-3.206c-0.009,0-0.019,0-0.029,0l-42.055,0.092v-4.05c5.501-1.031,9.68-5.863,9.68-11.659v-18.032    c0-6.545-5.325-11.87-11.87-11.87H176.276c-6.545,0-11.87,5.325-11.87,11.87v18.032c0,5.796,4.179,10.627,9.68,11.659v4.05    l-42.053-0.092c-0.01,0-0.019,0-0.029,0c-2.928,0-5.681,1.139-7.755,3.206c-2.081,2.076-3.227,4.838-3.227,7.777v25.425    c0,27.226,11.895,52.964,32.636,70.614c14.866,12.65,33.106,20.108,52.116,21.668c6.194,7.158,13.193,13.681,20.936,19.385    c2.054,1.513,4.193,2.842,6.393,4c-3.031,19.577-9.608,45.467-23.828,68.472h-24.694c-4.596,0-8.754,2.897-10.347,7.211    l-2.251,6.099c-0.134-0.091-0.265-0.183-0.4-0.275c-3.544-26.454-15.296-54.287-33.359-78.777    c-2.435-3.301-6.706-4.693-10.627-3.466c-3.93,1.233-6.647,4.823-6.761,8.935c-0.275,9.892-0.042,19.723,0.676,29.675    c-3.818-4.215-7.398-8.438-10.746-12.652c4.619-26.07,1.664-55.905-8.457-84.48c-1.369-3.865-5.032-6.44-9.153-6.408    c-4.115,0.033-7.76,2.673-9.07,6.568c-3.143,9.348-5.796,18.787-8.032,28.483c-2.412-5.111-4.594-10.157-6.56-15.122    c15.213-29.755,17.39-61.793,16.463-83.76c-0.173-4.113-2.945-7.658-6.899-8.824c-3.961-1.167-8.223,0.312-10.605,3.679    c-5.732,8.107-11.02,16.435-15.98,25.122c-0.832-5.741-1.45-11.346-1.875-16.806c18.383-19.429,32.537-46.006,41.011-77.152    c1.093-4.02-0.511-8.266-3.992-10.565c-3.483-2.301-8.023-2.11-11.294,0.475c-8.051,6.36-15.72,13.053-23.165,20.189    c2.009-13.203,4.921-26.345,8.738-39.272c1.176-3.983-1.099-8.165-5.082-9.341c-3.978-1.172-8.164,1.099-9.34,5.082    c-6.21,21.035-10.179,42.616-11.797,64.148c-0.011,0.149-0.008,0.296-0.011,0.444c-0.569,6.525-0.892,13.288-0.964,20.251    c-5.869-8.254-11.366-16.82-16.57-25.872c-2.151-3.742-6.42-5.58-10.613-4.571c-4.187,1.004-7.147,4.567-7.365,8.867    c-0.927,18.301,2.347,37.151,9.217,53.077c7.445,17.258,18.824,30.582,33.036,38.759c1.249,5.373,2.704,10.854,4.373,16.426    c-8.023-5.991-15.805-12.371-23.474-19.279c-3.189-2.872-7.796-3.304-11.464-1.074c-3.66,2.224-5.394,6.502-4.317,10.644    c8.188,31.484,31.934,65.891,66.938,73.821c2.745,4.751,5.714,9.541,8.909,14.355c-9.396-3.375-18.681-7.181-28.019-11.515    c-3.885-1.805-8.412-0.865-11.263,2.334c-2.844,3.194-3.254,7.787-1.019,11.431c16.21,26.435,46.788,51.332,80.727,51.332    c1.602,0,3.213-0.063,4.829-0.176c9.351,8.72,19.956,17.273,31.599,25.455c0.002,0.001,0.003,0.002,0.005,0.003    c2.077,1.461,4.222,2.903,6.398,4.335l-4.912,13.31c-1.248,3.382-0.763,7.167,1.298,10.124c2.061,2.958,5.443,4.723,9.048,4.723    h168.541c3.605,0,6.987-1.765,9.048-4.723c2.061-2.958,2.546-6.743,1.298-10.124l-5.042-13.663c1.99-1.316,3.954-2.641,5.86-3.982    c0.002-0.001,0.003-0.002,0.005-0.003c11.643-8.182,22.247-16.735,31.598-25.454c1.616,0.114,3.226,0.176,4.829,0.176    c33.937,0,64.519-24.899,80.728-51.333c2.234-3.644,1.824-8.238-1.021-11.43c-2.851-3.201-7.377-4.14-11.261-2.334    c-9.338,4.334-18.623,8.14-28.02,11.515c3.194-4.813,6.164-9.604,8.909-14.355c35.004-7.93,58.75-42.337,66.939-73.822    C505.553,235.7,503.818,231.422,500.159,229.199z M474.136,209.34c0.15-0.99,0.297-1.979,0.436-2.963    c0.122-0.87,0.237-1.735,0.351-2.599c0.128-0.974,0.253-1.946,0.369-2.913c0.104-0.861,0.202-1.718,0.297-2.573    c0.106-0.958,0.208-1.913,0.304-2.863c0.085-0.848,0.165-1.693,0.241-2.535c0.086-0.949,0.165-1.893,0.24-2.834    c0.034-0.435,0.079-0.878,0.111-1.311c6.952-8.516,13.394-17.271,19.446-26.442c-2.484,18.036-9.537,36.156-22.039,48.697    C473.979,210.446,474.052,209.896,474.136,209.34z M337.916,206.799v-28.814l38.026-0.083v21.362    c0,22.811-9.967,44.374-27.344,59.161c-8.742,7.439-18.878,12.732-29.649,15.678C331.16,254.047,337.916,230.769,337.916,206.799z     M163.404,258.425c-17.377-14.788-27.344-36.352-27.344-59.161v-21.362l38.025,0.083v28.814c0,23.97,6.757,47.249,18.968,67.305    C182.282,271.158,172.145,265.863,163.404,258.425z M189.124,206.799v-47.691h9.811c4.153,0,7.519-3.366,7.519-7.519    s-3.366-7.519-7.519-7.519h-19.491v-11.696h153.114v11.696H233.92c-4.153,0-7.519,3.366-7.519,7.519s3.366,7.519,7.519,7.519    h88.958v47.691c0,36.17-17.385,70.572-46.506,92.024c-12.184,8.976-28.557,8.976-40.744,0    C206.509,277.37,189.124,242.969,189.124,206.799z M16.072,162.307c6.053,9.172,12.494,17.927,19.446,26.442    c0.033,0.442,0.078,0.894,0.113,1.338c0.073,0.93,0.152,1.863,0.237,2.801c0.076,0.844,0.156,1.69,0.242,2.54    c0.095,0.952,0.198,1.909,0.304,2.868c0.095,0.853,0.192,1.708,0.296,2.568c0.117,0.969,0.242,1.943,0.37,2.92    c0.113,0.86,0.228,1.721,0.349,2.587c0.14,0.993,0.289,1.992,0.44,2.992c0.083,0.549,0.155,1.091,0.242,1.642    C25.608,198.462,18.556,180.344,16.072,162.307z M70.824,203.941c-0.878,15.831-3.833,30.919-8.683,44.395    c-0.126-0.405-0.255-0.811-0.38-1.216c-0.251-0.819-0.498-1.635-0.74-2.45c-0.244-0.822-0.483-1.641-0.718-2.458    c-0.233-0.812-0.462-1.622-0.685-2.43c-0.225-0.813-0.445-1.624-0.66-2.432c-0.214-0.803-0.423-1.603-0.627-2.401    c-0.205-0.802-0.405-1.6-0.6-2.397s-0.387-1.591-0.572-2.382c-0.087-0.373-0.17-0.743-0.255-1.115    C61.253,220.28,65.863,211.96,70.824,203.941z M49.754,162.273c0.011-0.87,0.027-1.737,0.047-2.601    c0.02-0.877,0.044-1.751,0.072-2.621c0.028-0.856,0.06-1.709,0.097-2.558c0.037-0.861,0.078-1.718,0.123-2.572    c0.044-0.84,0.093-1.675,0.146-2.507c0.054-0.852,0.112-1.699,0.174-2.543c0.03-0.408,0.065-0.812,0.097-1.219    c6.826-7.337,13.778-14.164,20.993-20.608c-5.731,15.52-13.072,29.41-21.77,41.202c0-0.441-0.003-0.882-0.001-1.321    C49.735,164.038,49.743,163.153,49.754,162.273z M28.914,254.765c8.454,6.763,17.13,13.041,26.194,18.958    c0.155,0.396,0.324,0.796,0.481,1.192c0.34,0.856,0.686,1.715,1.038,2.575c0.316,0.773,0.637,1.546,0.963,2.322    c0.365,0.866,0.737,1.735,1.114,2.605c0.337,0.779,0.678,1.558,1.025,2.34c0.388,0.872,0.783,1.747,1.183,2.622    c0.359,0.787,0.72,1.574,1.089,2.363c0.41,0.877,0.829,1.756,1.25,2.636c0.236,0.493,0.461,0.983,0.701,1.477    C48.512,285.721,36.557,270.86,28.914,254.765z M93.201,277.644c3.717,15.199,5.241,30.396,4.493,44.714    c-0.234-0.344-0.471-0.689-0.703-1.033c-0.472-0.7-0.938-1.4-1.4-2.099c-0.473-0.716-0.941-1.432-1.404-2.148    c-0.455-0.703-0.905-1.405-1.35-2.106c-0.453-0.715-0.901-1.428-1.343-2.142c-0.43-0.693-0.856-1.386-1.277-2.078    c-0.439-0.724-0.873-1.446-1.301-2.167c-0.399-0.671-0.793-1.342-1.182-2.011c-0.201-0.346-0.396-0.691-0.594-1.037    C88.766,295.931,90.773,286.69,93.201,277.644z M67.812,338.231c10.046,3.984,20.155,7.448,30.524,10.464    c0.253,0.321,0.52,0.642,0.776,0.964c0.601,0.755,1.208,1.509,1.823,2.264c0.515,0.632,1.034,1.264,1.559,1.896    c0.617,0.743,1.241,1.485,1.871,2.227c0.543,0.639,1.088,1.278,1.641,1.917c0.64,0.741,1.29,1.481,1.943,2.22    c0.56,0.634,1.122,1.268,1.692,1.902c0.677,0.753,1.364,1.505,2.054,2.256c0.353,0.384,0.693,0.769,1.05,1.153    C95.577,362.159,79.8,351.398,67.812,338.231z M152.691,382.388c-0.674-0.544-1.342-1.089-2.005-1.635    c-0.665-0.548-1.325-1.096-1.98-1.645c-0.664-0.557-1.322-1.114-1.975-1.673c-0.639-0.547-1.273-1.095-1.902-1.644    c-0.643-0.561-1.281-1.124-1.913-1.687c-0.617-0.55-1.229-1.101-1.835-1.652c-0.619-0.563-1.233-1.126-1.84-1.69    c-0.289-0.269-0.572-0.538-0.859-0.807c-1.298-9.714-2.11-19.19-2.445-28.608c8.087,13.565,14.122,27.791,17.76,41.845    C153.362,382.924,153.024,382.656,152.691,382.388z M177.818,424.336l9.557-25.896c0.005,0,0,0,0.005,0h137.91h0.005l9.557,25.896    H177.818z M373.62,369.955c-0.294,0.276-0.584,0.552-0.881,0.827c-0.594,0.552-1.194,1.102-1.799,1.652    c-0.616,0.561-1.238,1.121-1.865,1.68c-0.626,0.558-1.258,1.114-1.895,1.67c-0.632,0.552-1.27,1.103-1.913,1.653    c-0.65,0.556-1.306,1.112-1.967,1.667c-0.657,0.551-1.319,1.101-1.987,1.651c-0.662,0.545-1.329,1.088-2.001,1.631    c-0.333,0.269-0.671,0.536-1.007,0.805c3.638-14.054,9.672-28.279,17.76-41.845C375.73,350.764,374.919,360.238,373.62,369.955z     M418.801,277.644c2.429,9.046,4.435,18.286,6.061,27.894c-0.193,0.337-0.383,0.673-0.578,1.01    c-0.397,0.683-0.799,1.367-1.206,2.053c-0.425,0.716-0.855,1.433-1.291,2.151c-0.419,0.689-0.843,1.38-1.272,2.071    c-0.447,0.721-0.899,1.442-1.358,2.164c-0.438,0.69-0.881,1.381-1.328,2.073c-0.47,0.727-0.946,1.454-1.427,2.182    c-0.457,0.692-0.919,1.385-1.386,2.078c-0.233,0.346-0.471,0.692-0.707,1.039C413.56,308.041,415.084,292.843,418.801,277.644z     M444.191,338.23c-11.988,13.169-27.764,23.931-44.934,27.265c0.387-0.418,0.758-0.836,1.141-1.254    c0.643-0.701,1.283-1.401,1.914-2.102c0.607-0.674,1.205-1.349,1.8-2.024c0.619-0.701,1.234-1.402,1.841-2.104    c0.585-0.676,1.162-1.352,1.735-2.028c0.596-0.703,1.188-1.406,1.772-2.109c0.559-0.672,1.111-1.345,1.659-2.017    c0.578-0.71,1.149-1.419,1.714-2.129c0.274-0.344,0.561-0.689,0.832-1.033C424.033,345.679,434.145,342.214,444.191,338.23z     M440.499,125.045c7.215,6.443,14.168,13.271,20.993,20.608c0.033,0.414,0.068,0.826,0.099,1.242    c0.062,0.832,0.119,1.668,0.172,2.508c0.053,0.836,0.102,1.675,0.147,2.518c0.045,0.853,0.086,1.71,0.123,2.571    c0.036,0.849,0.069,1.701,0.097,2.557c0.028,0.869,0.052,1.741,0.072,2.618c0.02,0.864,0.035,1.731,0.047,2.601    c0.012,0.886,0.019,1.775,0.022,2.668c0.001,0.435-0.001,0.873-0.002,1.31C453.571,154.455,446.23,140.564,440.499,125.045z     M441.179,203.941c4.961,8.019,9.572,16.341,13.921,25.115c-0.085,0.372-0.167,0.742-0.255,1.115    c-0.185,0.791-0.376,1.584-0.572,2.38c-0.196,0.799-0.396,1.6-0.602,2.404c-0.203,0.794-0.412,1.59-0.624,2.388    c-0.217,0.814-0.438,1.631-0.665,2.45c-0.222,0.8-0.448,1.603-0.679,2.408c-0.236,0.824-0.478,1.651-0.724,2.479    c-0.241,0.81-0.486,1.623-0.736,2.437c-0.124,0.405-0.254,0.813-0.381,1.219C445.011,234.86,442.057,219.773,441.179,203.941z     M448.051,293.856c0.239-0.492,0.462-0.98,0.697-1.47c0.425-0.886,0.847-1.771,1.259-2.654c0.364-0.779,0.72-1.556,1.074-2.332    c0.405-0.887,0.805-1.772,1.197-2.655c0.343-0.773,0.68-1.544,1.014-2.314c0.38-0.876,0.754-1.751,1.121-2.624    c0.325-0.773,0.644-1.543,0.96-2.313c0.353-0.862,0.7-1.722,1.04-2.579c0.157-0.396,0.326-0.796,0.48-1.191    c9.064-5.917,17.739-12.194,26.194-18.958C475.445,270.859,463.49,285.721,448.051,293.856z"
   id="path2"
   style="fill:#ffffff" />
	</g>
</g>
<g
   id="g8"
   style="fill:#ffffff">
</g>
<g
   id="g10"
   style="fill:#ffffff">
</g>
<g
   id="g12"
   style="fill:#ffffff">
</g>
<g
   id="g14"
   style="fill:#ffffff">
</g>
<g
   id="g16"
   style="fill:#ffffff">
</g>
<g
   id="g18"
   style="fill:#ffffff">
</g>
<g
   id="g20"
   style="fill:#ffffff">
</g>
<g
   id="g22"
   style="fill:#ffffff">
</g>
<g
   id="g24"
   style="fill:#ffffff">
</g>
<g
   id="g26"
   style="fill:#ffffff">
</g>
<g
   id="g28"
   style="fill:#ffffff">
</g>
<g
   id="g30"
   style="fill:#ffffff">
</g>
<g
   id="g32"
   style="fill:#ffffff">
</g>
<g
   id="g34"
   style="fill:#ffffff">
</g>
<g
   id="g36"
   style="fill:#ffffff">
</g>
</svg>