<?xml version="1.0"?>
<svg xmlns="http://www.w3.org/2000/svg" xmlns:xlink="http://www.w3.org/1999/xlink" xmlns:svgjs="http://svgjs.com/svgjs" version="1.1" width="512" height="512" x="0" y="0" viewBox="0 0 512 512" style="enable-background:new 0 0 512 512" xml:space="preserve" class=""><g><g xmlns="http://www.w3.org/2000/svg" id="filled_outline" data-name="filled outline"><g fill="#999"><rect height="64" rx="9.894" width="96" x="168" y="400" fill="#4329ff" data-original="#999999" style="" class=""/><rect height="64" rx="9.894" width="112" x="152" y="312" fill="#4329ff" data-original="#999999" style="" class=""/><rect height="64" rx="9.894" width="128" x="136" y="224" fill="#4329ff" data-original="#999999" style="" class=""/></g><rect fill="#ffffff" height="64" rx="9.894" width="144" x="120" y="136" data-original="#cccccc" style="" class=""/><rect fill="#ffffff" height="64" rx="9.894" width="160" x="104" y="48" data-original="#cccccc" style="" class=""/><path d="m376 283.75v-63.07a12.684 12.684 0 0 0 -12.68-12.68h-54.64a12.684 12.684 0 0 0 -12.68 12.68v70.64a12.684 12.684 0 0 0 12.68 12.68h54.64a12.675 12.675 0 0 0 12.633-11.75zm-16-35.75a8 8 0 0 1 -8 8h-32a8 8 0 0 1 -8-8v-16a8 8 0 0 1 8-8h32a8 8 0 0 1 8 8z" fill="#dd8900" data-original="#fdca77" style="" class=""/><path d="m264 395.75h-96a4.25 4.25 0 0 0 -4.25 4.25v64a4.25 4.25 0 0 0 4.25 4.25h96a4.25 4.25 0 0 0 4.25-4.25v-64a4.25 4.25 0 0 0 -4.25-4.25zm-4.25 64h-87.5v-55.5h87.5z" fill="#000000" data-original="#000000" style="" class=""/><path d="m264 307.75h-112a4.25 4.25 0 0 0 -4.25 4.25v64a4.25 4.25 0 0 0 4.25 4.25h112a4.25 4.25 0 0 0 4.25-4.25v-64a4.25 4.25 0 0 0 -4.25-4.25zm-4.25 64h-103.5v-55.5h103.5z" fill="#000000" data-original="#000000" style="" class=""/><path d="m264 219.75h-128a4.25 4.25 0 0 0 -4.25 4.25v64a4.25 4.25 0 0 0 4.25 4.25h128a4.25 4.25 0 0 0 4.25-4.25v-64a4.25 4.25 0 0 0 -4.25-4.25zm-4.25 64h-119.5v-55.5h119.5z" fill="#000000" data-original="#000000" style="" class=""/><path d="m264 131.75h-144a4.25 4.25 0 0 0 -4.25 4.25v64a4.25 4.25 0 0 0 4.25 4.25h144a4.25 4.25 0 0 0 4.25-4.25v-64a4.25 4.25 0 0 0 -4.25-4.25zm-4.25 64h-135.5v-55.5h135.5z" fill="#000000" data-original="#000000" style="" class=""/><path d="m264 43.75h-160a4.25 4.25 0 0 0 -4.25 4.25v64a4.25 4.25 0 0 0 4.25 4.25h160a4.25 4.25 0 0 0 4.25-4.25v-64a4.25 4.25 0 0 0 -4.25-4.25zm-4.25 64h-151.5v-55.5h151.5z" fill="#000000" data-original="#000000" style="" class=""/><path d="m344 404.25a4.25 4.25 0 0 0 0-8.5h-48a4.25 4.25 0 0 0 -4.25 4.25v64a4.25 4.25 0 0 0 4.25 4.25h48a4.25 4.25 0 0 0 0-8.5h-43.75v-23.5h35.75a4.25 4.25 0 0 0 0-8.5h-35.75v-23.5z" fill="#000000" data-original="#000000" style="" class=""/><path d="m296 116.25a4.25 4.25 0 0 0 4.25-4.25v-27.75h27.75a4.25 4.25 0 0 0 0-8.5h-27.75v-23.5h43.75a4.25 4.25 0 0 0 0-8.5h-48a4.25 4.25 0 0 0 -4.25 4.25v64a4.25 4.25 0 0 0 4.25 4.25z" fill="#000000" data-original="#000000" style="" class=""/><path d="m352 219.75h-31.99a12.269 12.269 0 0 0 -12.255 12.255v15.995a12.269 12.269 0 0 0 12.255 12.255h31.99a12.269 12.269 0 0 0 12.25-12.255v-15.99a12.269 12.269 0 0 0 -12.25-12.26zm3.75 28.25a3.76 3.76 0 0 1 -3.75 3.75h-31.99a3.76 3.76 0 0 1 -3.76-3.75v-15.99a3.76 3.76 0 0 1 3.755-3.755h31.995a3.76 3.76 0 0 1 3.755 3.755z" fill="#000000" data-original="#000000" style="" class=""/><path d="m389.931 232.874h19.858v23.167h-19.858z" fill="#dd8900" data-original="#fdca77" style="" class=""/><path d="m408 227.75h-3.75v-9.989l6.755-6.756a4.25 4.25 0 0 0 -6.005-6.005l-8 8a4.25 4.25 0 0 0 -1.245 3v11.75h-3.755a4.25 4.25 0 0 0 -4.25 4.25v24a4.25 4.25 0 0 0 4.25 4.25h3.75v17.678a5.829 5.829 0 0 1 -5.822 5.822h-9.678v-63.072a16.947 16.947 0 0 0 -16.928-16.928h-54.644a16.947 16.947 0 0 0 -16.928 16.928v70.644a16.947 16.947 0 0 0 16.928 16.928h54.644a16.934 16.934 0 0 0 16.881-16h9.725a14.338 14.338 0 0 0 14.322-14.322v-17.678h3.75a4.25 4.25 0 0 0 4.25-4.25v-24a4.25 4.25 0 0 0 -4.25-4.25zm-36.25 63.572a8.437 8.437 0 0 1 -8.428 8.428h-54.644a8.437 8.437 0 0 1 -8.428-8.428v-70.644a8.437 8.437 0 0 1 8.428-8.428h54.644a8.437 8.437 0 0 1 8.428 8.428zm32-39.572h-7.5v-15.5h7.5z" fill="#000000" data-original="#000000" style="" class=""/></g></g></svg>
